<?xml version="1.0" encoding="UTF-8"?>
<svg id="Layer_2" data-name="Layer 2" xmlns="http://www.w3.org/2000/svg" viewBox="0 0 1194.46 166.04">
  <defs>
    <style>
      .cls-1, .cls-2 {
        fill: #fff;
      }

      .cls-2 {
        fill-rule: evenodd;
      }
    </style>
  </defs>
  <g id="Final">
    <g id="ieee_upc_cas_rgb_horizontal_w">
      <g>
        <path class="cls-1" d="m5.08,97.04c-.12,2.77-.21,6.03-.21,13.12,0,7.92.08,11.31.33,15.56l-.25.29c-1.82.04-2.39.04-4.58.12l-.25-.29c.08-2.52.17-4.71.17-10.03,0-6.23,0-12.42-.29-18.61l.21-.33c1.82,0,2.48,0,4.58-.12l.29.29Z"/>
        <path class="cls-1" d="m28.78,122.63c-.12,1.4-.12,1.69-.21,3.1l-.29.29c-8.05,0-9.33.04-17.17.12l-.21-.29c.12-3.26.25-5.49.25-13.04,0-6.93,0-10.9-.29-15.64l.25-.29c8.13-.04,9.74-.04,17.33-.12l.25.29c-.12,1.24-.21,1.73-.29,3.22l-.25.29c-5.32-.17-7.1-.17-12.34-.21-.12,3.8-.12,4.99-.12,8.79,5.08.04,6.65,0,11.68-.08l.21.29c-.17,1.44-.17,1.86-.21,3.18l-.25.29c-4.79-.12-5.82-.12-11.43-.12-.08,4.79-.04,5.94,0,9.86,6.23,0,7.51,0,12.84-.21l.25.29Z"/>
        <path class="cls-1" d="m50.53,122.63c-.12,1.4-.12,1.69-.21,3.1l-.29.29c-8.05,0-9.33.04-17.17.12l-.21-.29c.12-3.26.25-5.49.25-13.04,0-6.93,0-10.9-.29-15.64l.25-.29c8.13-.04,9.74-.04,17.33-.12l.25.29c-.12,1.24-.21,1.73-.29,3.22l-.25.29c-5.32-.17-7.1-.17-12.34-.21-.12,3.8-.12,4.99-.12,8.79,5.08.04,6.64,0,11.68-.08l.21.29c-.17,1.44-.17,1.86-.21,3.18l-.25.29c-4.79-.12-5.82-.12-11.43-.12-.08,4.79-.04,5.94,0,9.86,6.23,0,7.51,0,12.84-.21l.25.29Z"/>
        <path class="cls-1" d="m72.29,122.63c-.12,1.4-.12,1.69-.21,3.1l-.29.29c-8.05,0-9.33.04-17.17.12l-.21-.29c.12-3.26.25-5.49.25-13.04,0-6.93,0-10.9-.29-15.64l.25-.29c8.13-.04,9.74-.04,17.33-.12l.25.29c-.12,1.24-.21,1.73-.29,3.22l-.25.29c-5.32-.17-7.1-.17-12.34-.21-.12,3.8-.12,4.99-.12,8.79,5.08.04,6.65,0,11.68-.08l.21.29c-.17,1.44-.17,1.86-.21,3.18l-.25.29c-4.79-.12-5.82-.12-11.43-.12-.08,4.79-.04,5.94,0,9.86,6.23,0,7.51,0,12.84-.21l.25.29Z"/>
        <path class="cls-1" d="m99.48,109.5c3.01,1.32,7.02,3.05,7.02,8.34,0,4.62-3.43,8.79-10.61,8.79-4.38,0-7.18-1.32-8.17-1.82l-.17-.29c.17-1.44.21-2.23.33-3.8l.41-.17c1.03.7,3.43,2.44,7.26,2.44,4.25,0,6.03-2.19,6.03-4.66,0-2.89-2.39-4-5.08-5.04l-2.06-.91c-2.93-1.36-6.85-3.14-6.85-8.17,0-1.53.41-3.1,1.28-4.33,1.9-2.72,5.32-3.63,8.67-3.63s5.24.62,7.43,1.32l.21.33c-.17,1.57-.21,2.15-.33,3.63l-.33.17c-1.77-.91-3.71-1.9-6.81-1.9-3.43,0-5.57,1.61-5.57,4.04,0,1.86,1.24,2.72,2.1,3.26.54.33.7.41,3.18,1.49l2.06.91Z"/>
        <path class="cls-1" d="m119.63,122.75c-.12,1.36-.12,1.65-.17,2.85l-.21.25c-.87.21-1.57.37-3.1.37-.99,0-3.59,0-4.87-2.15-.74-1.2-.74-2.19-.74-7.06l.08-9.08c-1.44,0-1.49.04-2.97.08l-.17-.25c.08-1.32.08-1.65.08-2.97l.25-.25c.91,0,1.44.04,2.81,0-.04-.87-.04-1.78-.04-2.64-.04-.78-.08-1.57-.12-2.35l.21-.29c1.86-.45,2.31-.58,4.21-1.16l.29.21c-.12,2.72-.17,3.26-.17,6.27,1.73-.04,2.23-.04,4.58-.12l.21.25c-.08,1.07-.12,1.53-.12,2.93l-.21.25c-2.06-.04-2.31-.08-4.5-.08l-.08,7.68c.04.5.04,2.85.04,3.43,0,3.01.37,3.96,2.44,3.96.87,0,1.53-.21,1.98-.37l.29.25Z"/>
        <path class="cls-1" d="m141.22,104.67c-.08,3.14-.12,6.07-.12,9.41,0,5.08.12,8.13.21,9.9,0,.58.04,1.16.08,1.73l-.17.25c-1.98.04-2.31.08-4.21.17l-.25-.25.04-1.73c-.91.66-3.1,2.35-6.48,2.35-1.61,0-3.38-.37-4.71-1.4-2.64-2.15-2.64-5.65-2.68-8.87v-2.56c-.08-5.9-.08-6.56-.21-8.79l.21-.29c1.94-.04,2.31-.04,4.25-.21l.25.29-.17,9.04c0,1.11-.04,1.94,0,3.92.04,1.73.12,5.45,4.29,5.45,2.44,0,4.17-1.36,5.16-2.15.04-2.23.04-4.13.04-6.52,0-5.74-.04-6.89-.29-9.57l.25-.29c1.9-.04,2.35-.04,4.25-.17l.25.29Z"/>
        <path class="cls-1" d="m160.16,93.94c2.1-.37,2.52-.45,4.37-.87l.29.25c-.29,5.74-.33,15.97-.33,20.1,0,6.4.17,9.45.33,12.3l-.21.29c-1.82,0-2.31.04-4.21.12l-.29-.25.08-1.53c-.99.74-2.68,2.06-5.7,2.06-5.49,0-9.29-4.33-9.29-10.61,0-4.5,1.9-7.35,3.63-8.87,3.01-2.72,6.93-2.85,9.08-2.85.87,0,1.28,0,2.39.08.04-5.12-.17-7.59-.37-9.99l.21-.25Zm.04,13.58c-.7-.04-1.2-.12-2.06-.12-1.28,0-4,.08-5.98,1.94-.91.87-2.39,2.81-2.39,6.48,0,2.35.66,4.04,1.53,5.08.74.87,2.11,1.86,4.25,1.86,2.52,0,4.04-1.32,4.62-1.82.08-5.41.08-6.64.04-13.41Z"/>
        <path class="cls-1" d="m186.85,120.98c-.21,1.65-.25,2.06-.33,3.67l-.25.29c-.7.37-2.93,1.57-6.6,1.57-6.77,0-11.02-3.88-11.02-11.06,0-7.68,4.62-11.43,10.03-11.43,3.26,0,5.53,1.36,6.77,2.85,2.35,2.81,2.27,6.89,2.23,8.71l-.29.25c-6.44-.04-7.55-.04-14.32,0,.04,1.44.17,3.47,1.57,5.16,1.69,2.02,4.04,2.23,5.32,2.23,1.2,0,2.44-.21,3.59-.62,1.53-.62,2.44-1.36,2.97-1.82l.33.21Zm-3.84-10.77c-.83-2.27-2.64-3.22-4.5-3.22-2.31,0-5.04,1.57-5.45,5.7,4.99.04,6.56,0,10.36-.04-.04-.58-.08-1.49-.41-2.44Z"/>
        <path class="cls-1" d="m209.98,125.97c-1.98.04-2.23.04-4.13.17l-.29-.29c0-.45.04-.91.04-1.36.04-2.02.04-4.04.04-6.07,0-6.36-.04-6.77-.25-7.64-.78-3.14-3.14-3.14-3.72-3.14-2.48,0-4.38,1.44-5.49,2.31-.04,7.18.04,10.94.33,15.77l-.25.25c-2.02.04-2.35.04-4.33.17l-.21-.29c.04-2.31.12-4.54.12-7.59,0-6.6-.29-10.11-.5-12.88l.25-.29c2.06-.37,2.44-.45,4.38-.83l.29.29-.04,2.15c1.07-.74,3.63-2.56,7.26-2.56,1.03,0,2.31.17,3.43.78,1.07.62,1.94,1.57,2.39,2.68.54,1.24.58,2.48.62,5.04v4.83c.12,4.83.17,6.69.29,8.25l-.25.25Z"/>
        <path class="cls-1" d="m224.9,122.75c-.12,1.36-.12,1.65-.17,2.85l-.21.25c-.87.21-1.57.37-3.1.37-.99,0-3.59,0-4.87-2.15-.74-1.2-.74-2.19-.74-7.06l.08-9.08c-1.44,0-1.49.04-2.97.08l-.17-.25c.08-1.32.08-1.65.08-2.97l.25-.25c.91,0,1.44.04,2.81,0-.04-.87-.04-1.78-.04-2.64-.04-.78-.08-1.57-.12-2.35l.21-.29c1.86-.45,2.31-.58,4.21-1.16l.29.21c-.12,2.72-.17,3.26-.17,6.27,1.73-.04,2.23-.04,4.58-.12l.21.25c-.08,1.07-.12,1.53-.12,2.93l-.21.25c-2.06-.04-2.31-.08-4.5-.08l-.08,7.68c.04.5.04,2.85.04,3.43,0,3.01.37,3.96,2.44,3.96.87,0,1.53-.21,1.98-.37l.29.25Z"/>
        <path class="cls-1" d="m240.91,126.14l-.21-.29c.08-1.98.12-3.88.12-7.64,0-1.77.04-10.4.04-12.34,0-4.33-.12-6.56-.29-8.71l.21-.29,5.53-.08c.83-.04,2.1-.04,3.22-.04,2.44,0,5.04.08,7.1,1.28,1.53.87,3.26,2.6,3.26,5.65,0,1.44-.41,5.57-6.15,6.97.95.04,2.31.08,3.8.74,3.55,1.57,3.92,4.71,3.92,6.23,0,3.8-2.35,6.48-5.65,7.68-2.19.78-4.37.78-7.64.78l-7.26.04Zm4.46-16.8c3.72.04,6.56,0,8.3-1.36,1.03-.87,1.69-2.23,1.69-3.59,0-1.11-.45-2.19-1.16-2.93-1.44-1.4-4-1.4-4.95-1.4-1.32,0-2.6.04-3.88.12v9.16Zm0,3.47c0,4.71,0,5.41.17,9.9h.78c3.1,0,5.61.04,7.22-.62,1.98-.74,3.1-2.48,3.1-4.54,0-4.83-5.32-4.87-7.3-4.87-.37,0-.74,0-2.97.08l-.99.04Z"/>
        <path class="cls-1" d="m275.29,108.84c-.41-.17-.95-.37-1.65-.37-.78,0-1.36.29-1.73.54-1.69,1.2-1.69,3.01-1.69,7.31,0,4.66.12,7.1.29,9.41l-.21.29c-1.94,0-2.39.04-4.38.12l-.21-.25c.04-3.14.08-5.98.08-9.82,0-6.6-.12-8.3-.37-10.69l.25-.29c1.57-.29,2.56-.5,4.29-.83l.25.25-.21,3.51c.5-1.32,1.53-3.96,5.04-3.96.54,0,.83.04,1.16.12l.17.25c-.41,1.98-.5,2.39-.78,4.21l-.29.21Z"/>
        <path class="cls-1" d="m294.36,117.51c0,5.12.04,5.57.25,8.25l-.21.21c-1.94.04-2.27.08-4.17.17l-.17-.25.04-1.49c-.78.62-2.64,2.1-5.78,2.1-4.13,0-7.02-2.81-7.02-6.89,0-5.53,4.62-7.3,12.05-8.17l.7-.08c0-1.11,0-1.9-.37-2.56-.41-.74-1.36-1.53-3.43-1.53-2.68,0-4.54.83-6.27,1.57l-.33-.21c.08-1.9.08-2.15.12-3.01l.25-.25c2.31-.83,4.71-1.36,7.14-1.36,3.05,0,6.03,1.03,6.89,4.25.29,1.16.29,3.43.29,5.16v4.09Zm-4.62-3.01c-4.17.62-8.05,1.2-8.05,4.87,0,.21,0,3.76,3.92,3.76,2.56,0,4.05-1.4,4.5-1.82v-6.89l-.37.08Z"/>
        <path class="cls-1" d="m317.77,125.97c-1.98.04-2.23.04-4.13.17l-.29-.29c0-.45.04-.91.04-1.36.04-2.02.04-4.04.04-6.07,0-6.36-.04-6.77-.25-7.64-.78-3.14-3.14-3.14-3.71-3.14-2.48,0-4.38,1.44-5.49,2.31-.04,7.18.04,10.94.33,15.77l-.25.25c-2.02.04-2.35.04-4.33.17l-.21-.29c.04-2.31.12-4.54.12-7.59,0-6.6-.29-10.11-.5-12.88l.25-.29c2.06-.37,2.44-.45,4.37-.83l.29.29-.04,2.15c1.07-.74,3.63-2.56,7.26-2.56,1.03,0,2.31.17,3.43.78,1.07.62,1.94,1.57,2.39,2.68.54,1.24.58,2.48.62,5.04v4.83c.12,4.83.17,6.69.29,8.25l-.25.25Z"/>
        <path class="cls-1" d="m338.33,121.1c-.17,1.78-.21,1.98-.33,3.67l-.29.29c-1.2.58-2.81,1.4-5.7,1.4-6.23,0-10.28-4.5-10.28-10.94s3.96-11.51,10.36-11.51c2.68,0,4.58.87,5.65,1.32l.17.29c-.17,1.49-.21,2.02-.29,3.26l-.33.17c-1.36-.99-2.93-1.61-4.58-1.61-3.43,0-6.44,2.64-6.44,7.92,0,5.61,3.18,7.64,6.4,7.64,2.81,0,4.54-1.44,5.32-2.06l.33.17Z"/>
        <path class="cls-1" d="m359.79,125.97c-1.98.04-2.23.04-4.13.17l-.29-.29.04-1.36c.04-2.15.04-4.33.04-6.48l-.04-4.42c0-.95,0-1.9-.21-2.81-.45-1.9-1.61-3.14-3.72-3.14-2.35,0-4.17,1.32-5.53,2.31-.04,7.18.04,10.94.29,15.77l-.21.25c-1.9.04-2.39.04-4.42.17l-.21-.29c.08-2.93.21-6.64.21-14.57,0-3.47-.04-6.93-.08-10.4-.08-3.63-.21-4.83-.33-6.69l.21-.25c1.98-.33,2.64-.45,4.5-.87l.25.29c-.25,4.42-.25,8.87-.25,13.33,1.32-.87,3.92-2.56,7.39-2.56.95,0,1.9.12,2.77.5,1.86.74,2.97,2.23,3.38,3.92.21.83.21,1.32.29,4.09v4.83l.04,1.94c.08,3.47.08,4.04.25,6.31l-.25.25Z"/>
      </g>
      <g>
        <path class="cls-1" d="m27.48,47.07l-.14,14.01v4.81c-.09,5.99-.28,8.73-2.78,11.37-3.49,3.68-8.68,3.68-10.38,3.68-6.32,0-9.95-2.36-11.74-4.91-1.65-2.26-1.93-4.81-2.08-9.9v-3.49c-.05-7.36-.05-8.68-.24-15.42l.28-.28c3.21.05,4.29.05,8.3-.14l.24.28c-.09,4.67-.14,8.3-.14,12.12,0,2.5,0,5,.09,7.5.09,2.97.38,4.62,1.09,5.85,1.04,1.65,2.88,2.5,4.81,2.5,1.56,0,3.11-.52,4.15-1.7,1.27-1.51,1.41-3.77,1.41-8.72,0-5.8-.24-11.6-.47-17.4l.28-.28c2.69.05,3.63.05,7.07-.14l.24.28Z"/>
        <path class="cls-1" d="m55.22,80.18c-3.77,0-4.57.05-7.69.14l-.28-.28c0-1.6.05-3.25.05-4.86,0-1.79-.05-8.25-.14-9.81-.14-1.7-.38-4.48-2.97-4.48-1.51,0-2.64.8-3.63,1.46.05,8.44.09,10.28.38,17.54l-.28.28c-3.77,0-4.48,0-7.88.14l-.28-.28c.05-3.02.09-6.04.09-9.06,0-7.69-.28-10.66-.66-14.76l.28-.33c3.54-.47,4.34-.61,7.97-1.37l.47.33-.09,2.59c2.17-1.27,4.67-2.78,7.55-2.78,1.7,0,4.39.38,5.85,2.83,1.18,1.93,1.23,4.1,1.27,8.63v3.68c.09,4.62.09,5.94.33,10.09l-.33.28Z"/>
        <path class="cls-1" d="m68.45,80.22c-3.82-.05-4.76,0-8.16.14l-.28-.33c.14-3.87.28-6.74.28-11.89,0-6.7-.14-8.35-.52-11.93l.28-.28,8.11-1.41.33.38c-.05,4.01-.14,8.07-.14,12.07,0,6.51.19,9.29.43,12.92l-.33.33Zm-.66-29.9c-3.35.42-4.24.52-7.45,1.08l-.33-.28c.05-.9.05-1.84.05-2.74,0-1.13-.05-2.12-.14-3.82l.28-.33,7.69-.94.28.28-.14,6.41-.24.33Z"/>
        <path class="cls-1" d="m86.69,80.22c-3.4-.05-4.62,0-7.69.14l-.33-.33c-1.04-3.87-1.56-5.61-7.83-24.2l.19-.38c3.58-.05,4.53-.09,8.25-.52l.33.28c.66,3.11.85,4.01,2.03,8.4l.9,3.63,1.18,5.09,2.41-9.29c.94-3.68,1.09-4.34,1.75-7.5l.33-.33,6.6-.14.24.33c-1.32,3.87-3.4,10-4.67,13.82-.99,2.97-1.89,5.9-3.4,10.61l-.28.38Z"/>
        <path class="cls-1" d="m117.79,73.38l-.33,5.33-.28.38c-2.5.99-4.2,1.7-8.11,1.7-3.4,0-9.81-.57-12.54-6.93-.76-1.65-1.13-3.96-1.13-6.18,0-8.16,4.9-13.02,12.31-13.02,1.08,0,2.17.09,3.35.42,1.6.38,5.23,1.51,6.89,7.07.66,2.36.71,4.72.75,7.03l-.28.33-15.23.28c.19.94.33,1.89,1.04,2.88,1.13,1.7,3.07,2.59,5.9,2.59,3.44,0,5.56-1.08,7.36-2.03l.33.14Zm-6.74-8.77c0-1.09-.05-2.22-.71-3.25-.52-.85-1.46-1.65-3.02-1.65-.66,0-1.32.14-1.89.52-1.79,1.13-2.12,3.11-2.26,4.57l7.88-.19Z"/>
        <path class="cls-1" d="m135.7,62.91c-.66-.38-1.13-.66-1.93-.66-3.21,0-3.21,3.11-3.21,5.24,0,3.25.28,8.58.47,12.4l-.24.33c-3.77-.05-4.53,0-8.02.14l-.28-.28c.09-3.91.14-7.78.14-11.65,0-6.56-.14-8.68-.43-12.22l.28-.28c3.44-.52,4.34-.66,7.83-1.41l.38.38-.14,4.34c1.51-3.49,3.68-4.57,5.61-4.57.33,0,.66.05.99.05l.28.33-1.32,7.69-.42.19Z"/>
        <path class="cls-1" d="m152.16,64.8c2.59.99,6.23,2.36,6.23,7.55,0,.33,0,.66-.05,1.04-.85,6.74-7.92,7.4-11.51,7.4s-5.42-.75-7.73-1.6l-.24-.42c.19-2.36.24-2.88.33-5.33l.43-.19c.71.57,1.08.9,1.89,1.32,1.75.9,3.68,1.32,5,1.32,2.64,0,3.73-1.27,3.73-2.45,0-1.7-2.08-2.41-3.35-2.83l-1.79-.66c-2.22-.85-6.13-2.36-6.13-7.4,0-1.89.66-3.3,1.27-4.15,2.45-3.54,7.07-3.73,9.39-3.73,3.07,0,5,.57,7.22,1.18l.24.28-.47,5.14-.43.14c-1.18-.75-3.02-1.98-5.89-1.98s-3.3,1.56-3.3,2.12c0,1.32,1.27,1.84,2.88,2.41l2.31.85Z"/>
        <path class="cls-1" d="m170.23,80.22c-3.82-.05-4.76,0-8.16.14l-.28-.33c.14-3.87.28-6.74.28-11.89,0-6.7-.14-8.35-.52-11.93l.28-.28,8.11-1.41.33.38c-.05,4.01-.14,8.07-.14,12.07,0,6.51.19,9.29.43,12.92l-.33.33Zm-.66-29.9c-3.35.42-4.24.52-7.45,1.08l-.33-.28c.05-.9.05-1.84.05-2.74,0-1.13-.05-2.12-.14-3.82l.28-.33,7.69-.94.28.28-.14,6.41-.24.33Z"/>
        <path class="cls-1" d="m197.98,80.22c-3.54,0-4.43,0-7.69.14l-.24-.28.09-1.84c-1.13.99-2.88,2.55-6.23,2.55-1.56,0-4.1-.38-6.18-2.08-2.78-2.31-3.77-5.99-3.77-9.67,0-4.86,1.37-8.77,4.67-11.32,3.58-2.83,8.02-2.74,11.55-2.64.05-5.38,0-6.56-.28-10.99l.24-.28,7.78-1.23.33.28c-.19,6.23-.38,11.37-.38,23.82,0,6.18.14,9.01.33,13.25l-.24.28Zm-9.39-19.62c-5.28,0-6.32,4.06-6.32,7.69,0,.94,0,6.79,4.57,6.79,1.32,0,2.26-.57,3.21-1.13.14-5.71.19-6.93.14-13.21-.66-.09-1.08-.14-1.6-.14Z"/>
        <path class="cls-1" d="m223.87,69.66c0,4.43,0,5.61.33,10.23l-.24.33c-3.07-.05-4.1,0-7.5.14l-.28-.33v-1.75c-.99.8-3.02,2.5-6.56,2.5-4.62,0-8.25-3.25-8.25-8.3,0-2.12.9-4.81,3.54-6.46,2.83-1.75,5.47-2.26,11.13-3.02,0-.71-.14-1.56-.61-2.03-.61-.61-1.32-.9-3.07-.9-3.16,0-6.23,1.23-7.88,1.89l-.38-.19.24-5.14.28-.38c2.69-.8,5.19-1.56,9.24-1.56,6.04,0,7.92,1.89,8.87,3.4,1.23,1.98,1.23,3.82,1.18,8.07l-.05,3.49Zm-7.74-1.7c-3.21.42-6.93.94-6.93,4.06,0,1.98,1.42,2.88,3.11,2.88,1.56,0,2.83-.66,3.82-1.23v-5.71Z"/>
        <path class="cls-1" d="m251.57,80.22c-3.54,0-4.43,0-7.69.14l-.24-.28.09-1.84c-1.13.99-2.88,2.55-6.23,2.55-1.56,0-4.1-.38-6.18-2.08-2.78-2.31-3.77-5.99-3.77-9.67,0-4.86,1.37-8.77,4.67-11.32,3.58-2.83,8.02-2.74,11.55-2.64.05-5.38,0-6.56-.28-10.99l.24-.28,7.78-1.23.33.28c-.19,6.23-.38,11.37-.38,23.82,0,6.18.14,9.01.33,13.25l-.24.28Zm-9.39-19.62c-5.28,0-6.32,4.06-6.32,7.69,0,.94,0,6.79,4.57,6.79,1.32,0,2.26-.57,3.21-1.13.14-5.71.19-6.93.14-13.21-.66-.09-1.08-.14-1.6-.14Z"/>
        <path class="cls-1" d="m281.42,46.74c3.54,0,7.55,0,10.38,1.65,3.91,2.22,4.39,6.7,4.39,8.73,0,3.3-1.13,5.99-2.45,7.59-3.4,4.15-9.06,4.15-14.34,4.1,0,4.81,0,5.99.19,11.13l-.24.28c-3.77-.05-4.53,0-8.02.14l-.28-.28c.14-5.75.28-11.46.28-17.21,0-5.42-.14-9.53-.33-15.66l.28-.28,5.99-.09,4.15-.09Zm-2.03,16.27c2.83,0,4.57-.09,5.85-.8,2.5-1.37,2.5-4.1,2.5-4.76,0-2.74-1.13-4.86-5.28-4.95-1.04,0-2.03,0-3.07.05v10.47Z"/>
        <path class="cls-1" d="m320.19,73.38l-.33,5.33-.28.38c-2.5.99-4.2,1.7-8.11,1.7-3.4,0-9.81-.57-12.55-6.93-.75-1.65-1.13-3.96-1.13-6.18,0-8.16,4.91-13.02,12.31-13.02,1.09,0,2.17.09,3.35.42,1.6.38,5.24,1.51,6.89,7.07.66,2.36.71,4.72.76,7.03l-.28.33-15.23.28c.19.94.33,1.89,1.04,2.88,1.13,1.7,3.07,2.59,5.89,2.59,3.44,0,5.57-1.08,7.36-2.03l.33.14Zm-6.75-8.77c0-1.09-.05-2.22-.71-3.25-.52-.85-1.46-1.65-3.02-1.65-.66,0-1.32.14-1.89.52-1.79,1.13-2.12,3.11-2.26,4.57l7.88-.19Z"/>
        <path class="cls-1" d="m338.1,62.91c-.66-.38-1.13-.66-1.93-.66-3.21,0-3.21,3.11-3.21,5.24,0,3.25.28,8.58.47,12.4l-.24.33c-3.77-.05-4.53,0-8.02.14l-.28-.28c.09-3.91.14-7.78.14-11.65,0-6.56-.14-8.68-.42-12.22l.28-.28c3.44-.52,4.34-.66,7.83-1.41l.38.38-.14,4.34c1.51-3.49,3.68-4.57,5.61-4.57.33,0,.66.05.99.05l.28.33-1.32,7.69-.43.19Z"/>
        <path class="cls-1" d="m365.49,55.37c-.09,4.43-.14,8.87-.14,13.3,0,6.13.09,7.92.33,11.27l-.28.28c-3.07,0-4.1,0-7.55.14l-.33-.28.05-2.12c-1.7,1.32-3.63,2.83-6.98,2.83-2.36,0-4.62-.75-6.18-2.5-1.7-1.98-1.93-4.15-1.89-9.29v-3.3c0-4.76-.05-6.08-.33-10.05l.33-.28,7.78-.38.33.38-.09,9.53c-.05,1.18-.05,2.41-.05,3.58,0,2.78,0,6.37,3.4,6.37,1.27,0,2.26-.71,3.54-1.56.05-1.89.05-2.64.05-4.01,0-.76,0-8.3-.33-13.63l.33-.28,7.69-.38.33.38Z"/>
        <path class="cls-1" d="m391.29,69.66c0,4.43,0,5.61.33,10.23l-.24.33c-3.07-.05-4.1,0-7.5.14l-.28-.33v-1.75c-.99.8-3.02,2.5-6.56,2.5-4.62,0-8.25-3.25-8.25-8.3,0-2.12.9-4.81,3.54-6.46,2.83-1.75,5.47-2.26,11.13-3.02,0-.71-.14-1.56-.61-2.03-.61-.61-1.32-.9-3.07-.9-3.16,0-6.23,1.23-7.88,1.89l-.38-.19.24-5.14.28-.38c2.69-.8,5.19-1.56,9.24-1.56,6.04,0,7.92,1.89,8.87,3.4,1.23,1.98,1.23,3.82,1.18,8.07l-.05,3.49Zm-7.74-1.7c-3.21.42-6.93.94-6.93,4.06,0,1.98,1.42,2.88,3.11,2.88,1.56,0,2.83-.66,3.82-1.23v-5.71Z"/>
        <path class="cls-1" d="m418.98,80.18c-3.77,0-4.58.05-7.69.14l-.28-.28c0-1.6.05-3.25.05-4.86,0-1.79-.05-8.25-.14-9.81-.14-1.7-.38-4.48-2.97-4.48-1.51,0-2.64.8-3.63,1.46.05,8.44.09,10.28.38,17.54l-.28.28c-3.77,0-4.48,0-7.88.14l-.28-.28c.05-3.02.09-6.04.09-9.06,0-7.69-.28-10.66-.66-14.76l.28-.33c3.54-.47,4.34-.61,7.97-1.37l.47.33-.09,2.59c2.17-1.27,4.67-2.78,7.55-2.78,1.7,0,4.39.38,5.85,2.83,1.18,1.93,1.23,4.1,1.27,8.63v3.68c.09,4.62.09,5.94.33,10.09l-.33.28Z"/>
        <path class="cls-1" d="m444.84,69.66c0,4.43,0,5.61.33,10.23l-.24.33c-3.07-.05-4.1,0-7.5.14l-.28-.33v-1.75c-.99.8-3.02,2.5-6.56,2.5-4.62,0-8.25-3.25-8.25-8.3,0-2.12.9-4.81,3.54-6.46,2.83-1.75,5.47-2.26,11.13-3.02,0-.71-.14-1.56-.61-2.03-.61-.61-1.32-.9-3.07-.9-3.16,0-6.23,1.23-7.88,1.89l-.38-.19.24-5.14.28-.38c2.69-.8,5.19-1.56,9.24-1.56,6.04,0,7.92,1.89,8.87,3.4,1.23,1.98,1.23,3.82,1.18,8.07l-.05,3.49Zm-7.74-1.7c-3.21.42-6.93.94-6.93,4.06,0,1.98,1.42,2.88,3.11,2.88,1.56,0,2.83-.66,3.82-1.23v-5.71Z"/>
        <path class="cls-1" d="m487.05,80.22c-3.54,0-4.43,0-7.69.14l-.24-.28.09-1.84c-1.13.99-2.88,2.55-6.22,2.55-1.56,0-4.1-.38-6.18-2.08-2.78-2.31-3.77-5.99-3.77-9.67,0-4.86,1.37-8.77,4.67-11.32,3.58-2.83,8.02-2.74,11.56-2.64.05-5.38,0-6.56-.28-10.99l.24-.28,7.78-1.23.33.28c-.19,6.23-.38,11.37-.38,23.82,0,6.18.14,9.01.33,13.25l-.24.28Zm-9.39-19.62c-5.28,0-6.32,4.06-6.32,7.69,0,.94,0,6.79,4.58,6.79,1.32,0,2.26-.57,3.21-1.13.14-5.71.19-6.93.14-13.21-.66-.09-1.09-.14-1.6-.14Z"/>
        <path class="cls-1" d="m513.14,73.38l-.33,5.33-.28.38c-2.5.99-4.2,1.7-8.11,1.7-3.4,0-9.81-.57-12.54-6.93-.76-1.65-1.13-3.96-1.13-6.18,0-8.16,4.9-13.02,12.31-13.02,1.08,0,2.17.09,3.35.42,1.6.38,5.23,1.51,6.89,7.07.66,2.36.71,4.72.75,7.03l-.28.33-15.23.28c.19.94.33,1.89,1.04,2.88,1.13,1.7,3.07,2.59,5.9,2.59,3.44,0,5.56-1.08,7.36-2.03l.33.14Zm-6.74-8.77c0-1.09-.05-2.22-.71-3.25-.52-.85-1.46-1.65-3.02-1.65-.66,0-1.32.14-1.89.52-1.79,1.13-2.12,3.11-2.26,4.57l7.88-.19Z"/>
        <path class="cls-1" d="m556.95,71.97l-.33,7.03-.24.28c-1.51.61-4.1,1.65-8.07,1.65-11.51,0-17.03-7.97-17.03-17.03,0-8.25,4.24-17.69,16.46-17.69,4.15,0,7.03,1.08,8.73,1.74l.19.24-.43,6.51-.42.09c-1.18-.9-3.11-2.26-6.65-2.26-7.69,0-9.1,7.12-9.1,11.18,0,6.7,3.77,10.71,9.15,10.71,3.91,0,6.32-1.79,7.41-2.64l.33.19Z"/>
        <path class="cls-1" d="m568.44,80.22c-3.82-.05-4.76,0-8.16.14l-.28-.33c.14-3.87.28-6.74.28-11.89,0-6.7-.14-8.35-.52-11.93l.28-.28,8.11-1.41.33.38c-.05,4.01-.14,8.07-.14,12.07,0,6.51.19,9.29.43,12.92l-.33.33Zm-.66-29.9c-3.35.42-4.24.52-7.45,1.08l-.33-.28c.05-.9.05-1.84.05-2.74,0-1.13-.05-2.12-.14-3.82l.28-.33,7.69-.94.28.28-.14,6.41-.24.33Z"/>
        <path class="cls-1" d="m594.49,73.38l-.33,5.33-.28.38c-2.5.99-4.2,1.7-8.11,1.7-3.4,0-9.81-.57-12.54-6.93-.76-1.65-1.13-3.96-1.13-6.18,0-8.16,4.9-13.02,12.31-13.02,1.08,0,2.17.09,3.35.42,1.6.38,5.23,1.51,6.89,7.07.66,2.36.71,4.72.75,7.03l-.28.33-15.23.28c.19.94.33,1.89,1.04,2.88,1.13,1.7,3.07,2.59,5.9,2.59,3.44,0,5.56-1.08,7.36-2.03l.33.14Zm-6.74-8.77c0-1.09-.05-2.22-.71-3.25-.52-.85-1.46-1.65-3.02-1.65-.66,0-1.32.14-1.89.52-1.79,1.13-2.12,3.11-2.26,4.57l7.88-.19Z"/>
        <path class="cls-1" d="m622.01,80.18c-3.77,0-4.57.05-7.69.14l-.28-.28c0-1.6.05-3.25.05-4.86,0-1.79-.05-8.25-.14-9.81-.14-1.7-.38-4.48-2.97-4.48-1.51,0-2.64.8-3.63,1.46.05,8.44.09,10.28.38,17.54l-.28.28c-3.77,0-4.48,0-7.88.14l-.28-.28c.05-3.02.09-6.04.09-9.06,0-7.69-.28-10.66-.66-14.76l.28-.33c3.54-.47,4.34-.61,7.97-1.37l.47.33-.09,2.59c2.17-1.27,4.67-2.78,7.55-2.78,1.7,0,4.39.38,5.85,2.83,1.18,1.93,1.23,4.1,1.27,8.63v3.68c.09,4.62.09,5.94.33,10.09l-.33.28Z"/>
        <path class="cls-1" d="m645.65,73.67l-.19,5.66-.28.28c-1.98.57-3.58,1.04-6.08,1.04-10.61,0-13.44-7.36-13.44-12.78,0-4.81,2.17-13.21,13.25-13.21,2.74,0,4.53.57,6.6,1.23l.24.28c-.38,2.5-.42,3.16-.61,5.66l-.47.14c-1.42-.94-2.55-1.7-4.62-1.7-4.57,0-6.08,3.96-6.08,7.4,0,2.83,1.09,7.26,6.41,7.26,2.41,0,3.63-.75,4.91-1.51l.38.24Z"/>
        <path class="cls-1" d="m657.55,80.22c-3.82-.05-4.76,0-8.16.14l-.28-.33c.14-3.87.28-6.74.28-11.89,0-6.7-.14-8.35-.52-11.93l.28-.28,8.11-1.41.33.38c-.05,4.01-.14,8.07-.14,12.07,0,6.51.19,9.29.42,12.92l-.33.33Zm-.66-29.9c-3.35.42-4.24.52-7.45,1.08l-.33-.28c.05-.9.05-1.84.05-2.74,0-1.13-.05-2.12-.14-3.82l.28-.33,7.69-.94.28.28-.14,6.41-.24.33Z"/>
        <path class="cls-1" d="m683.4,69.66c0,4.43,0,5.61.33,10.23l-.24.33c-3.07-.05-4.1,0-7.5.14l-.28-.33v-1.75c-.99.8-3.02,2.5-6.56,2.5-4.62,0-8.25-3.25-8.25-8.3,0-2.12.9-4.81,3.54-6.46,2.83-1.75,5.47-2.26,11.13-3.02,0-.71-.14-1.56-.61-2.03-.61-.61-1.32-.9-3.07-.9-3.16,0-6.23,1.23-7.88,1.89l-.38-.19.24-5.14.28-.38c2.69-.8,5.19-1.56,9.24-1.56,6.04,0,7.92,1.89,8.87,3.4,1.23,1.98,1.23,3.82,1.18,8.07l-.05,3.49Zm-7.74-1.7c-3.21.42-6.93.94-6.93,4.06,0,1.98,1.42,2.88,3.11,2.88,1.56,0,2.83-.66,3.82-1.23v-5.71Z"/>
        <path class="cls-1" d="m700.68,64.8c2.59.99,6.22,2.36,6.22,7.55,0,.33,0,.66-.05,1.04-.85,6.74-7.92,7.4-11.51,7.4s-5.42-.75-7.73-1.6l-.24-.42c.19-2.36.24-2.88.33-5.33l.42-.19c.71.57,1.09.9,1.89,1.32,1.74.9,3.68,1.32,5,1.32,2.64,0,3.73-1.27,3.73-2.45,0-1.7-2.07-2.41-3.35-2.83l-1.79-.66c-2.22-.85-6.13-2.36-6.13-7.4,0-1.89.66-3.3,1.27-4.15,2.45-3.54,7.08-3.73,9.39-3.73,3.07,0,5,.57,7.22,1.18l.24.28-.47,5.14-.43.14c-1.18-.75-3.02-1.98-5.89-1.98s-3.3,1.56-3.3,2.12c0,1.32,1.27,1.84,2.88,2.41l2.31.85Z"/>
        <path class="cls-1" d="m744.21,47.07c2.69,10.38,3.35,12.59,9.06,32.78l-.24.38c-3.82-.05-4.76,0-8.21.14l-.33-.28-2.03-8.73h-10.19l-2.31,8.58-.33.28h-7.36l-.19-.33c6.93-19.9,8.44-24.67,10.94-32.68l.33-.28c5.05,0,5.99,0,10.52-.14l.33.28Zm-3.11,18.58l-1.75-7.36-1.41-6.13-1.65,5.52-2.36,7.97h7.17Z"/>
        <path class="cls-1" d="m763.8,56.88c1.32-.9,3.16-2.22,6.41-2.22,5.28,0,9.86,4.53,9.86,12.03,0,3.21-.99,7.22-4.01,10.05-3.82,3.58-8.58,3.63-12.03,3.68l.33,11.23-.28.24c-3.58-.05-4.57,0-7.92.14l-.28-.24c.14-5.33.24-8.54.24-14.15,0-13.58-.19-15.75-.71-21.37l.28-.33c3.4-.42,4.39-.61,7.83-1.37l.38.42-.09,1.89Zm.19,18.3c1.65-.05,3.54-.14,5.05-1.18,1.89-1.32,2.78-3.77,2.78-6.51,0-1.6-.24-4.01-1.7-5.61-1.18-1.32-2.59-1.41-3.3-1.41-1.18,0-1.79.33-2.83.94v13.77Z"/>
        <path class="cls-1" d="m791.73,80.22c-3.44-.05-4.72,0-7.88.14l-.28-.33c.19-4.67.28-7.5.28-12.59,0-2.78,0-5.57-.05-8.35-.09-7.64-.14-9.2-.61-14.95l.19-.28,8.07-1.27.33.33c-.19,5.09-.24,7.22-.24,11.7,0,14.9.24,19.86.47,25.28l-.28.33Z"/>
        <path class="cls-1" d="m804.98,80.22c-3.82-.05-4.76,0-8.16.14l-.28-.33c.14-3.87.28-6.74.28-11.89,0-6.7-.14-8.35-.52-11.93l.28-.28,8.11-1.41.33.38c-.05,4.01-.14,8.07-.14,12.07,0,6.51.19,9.29.43,12.92l-.33.33Zm-.66-29.9c-3.35.42-4.24.52-7.45,1.08l-.33-.28c.05-.9.05-1.84.05-2.74,0-1.13-.05-2.12-.14-3.82l.28-.33,7.69-.94.28.28-.14,6.41-.24.33Z"/>
        <path class="cls-1" d="m828.6,73.67l-.19,5.66-.28.28c-1.98.57-3.58,1.04-6.08,1.04-10.61,0-13.44-7.36-13.44-12.78,0-4.81,2.17-13.21,13.25-13.21,2.74,0,4.53.57,6.6,1.23l.24.28c-.38,2.5-.42,3.16-.61,5.66l-.47.14c-1.41-.94-2.55-1.7-4.62-1.7-4.57,0-6.08,3.96-6.08,7.4,0,2.83,1.09,7.26,6.41,7.26,2.41,0,3.63-.75,4.9-1.51l.38.24Z"/>
        <path class="cls-1" d="m853.38,69.66c0,4.43,0,5.61.33,10.23l-.24.33c-3.07-.05-4.1,0-7.5.14l-.28-.33v-1.75c-.99.8-3.02,2.5-6.56,2.5-4.62,0-8.25-3.25-8.25-8.3,0-2.12.9-4.81,3.54-6.46,2.83-1.75,5.47-2.26,11.13-3.02,0-.71-.14-1.56-.61-2.03-.61-.61-1.32-.9-3.07-.9-3.16,0-6.23,1.23-7.88,1.89l-.38-.19.24-5.14.28-.38c2.69-.8,5.19-1.56,9.24-1.56,6.04,0,7.92,1.89,8.87,3.4,1.23,1.98,1.23,3.82,1.18,8.07l-.05,3.49Zm-7.74-1.7c-3.21.42-6.93.94-6.93,4.06,0,1.98,1.42,2.88,3.11,2.88,1.56,0,2.83-.66,3.82-1.23v-5.71Z"/>
        <path class="cls-1" d="m881.08,80.22c-3.54,0-4.43,0-7.69.14l-.24-.28.09-1.84c-1.13.99-2.88,2.55-6.22,2.55-1.56,0-4.1-.38-6.18-2.08-2.78-2.31-3.77-5.99-3.77-9.67,0-4.86,1.37-8.77,4.67-11.32,3.58-2.83,8.02-2.74,11.55-2.64.05-5.38,0-6.56-.28-10.99l.24-.28,7.78-1.23.33.28c-.19,6.23-.38,11.37-.38,23.82,0,6.18.14,9.01.33,13.25l-.24.28Zm-9.39-19.62c-5.28,0-6.32,4.06-6.32,7.69,0,.94,0,6.79,4.57,6.79,1.32,0,2.26-.57,3.21-1.13.14-5.71.19-6.93.14-13.21-.66-.09-1.08-.14-1.6-.14Z"/>
        <path class="cls-1" d="m906.97,69.66c0,4.43,0,5.61.33,10.23l-.24.33c-3.07-.05-4.1,0-7.5.14l-.28-.33v-1.75c-.99.8-3.02,2.5-6.56,2.5-4.62,0-8.25-3.25-8.25-8.3,0-2.12.9-4.81,3.54-6.46,2.83-1.75,5.47-2.26,11.13-3.02,0-.71-.14-1.56-.61-2.03-.61-.61-1.32-.9-3.07-.9-3.16,0-6.23,1.23-7.88,1.89l-.38-.19.24-5.14.28-.38c2.69-.8,5.19-1.56,9.24-1.56,6.04,0,7.92,1.89,8.87,3.4,1.23,1.98,1.23,3.82,1.18,8.07l-.05,3.49Zm-7.74-1.7c-3.21.42-6.93.94-6.93,4.06,0,1.98,1.42,2.88,3.11,2.88,1.56,0,2.83-.66,3.82-1.23v-5.71Z"/>
        <path class="cls-1" d="m924.25,64.8c2.59.99,6.22,2.36,6.22,7.55,0,.33,0,.66-.05,1.04-.85,6.74-7.92,7.4-11.51,7.4s-5.42-.75-7.73-1.6l-.24-.42c.19-2.36.24-2.88.33-5.33l.42-.19c.71.57,1.09.9,1.89,1.32,1.74.9,3.68,1.32,5,1.32,2.64,0,3.73-1.27,3.73-2.45,0-1.7-2.07-2.41-3.35-2.83l-1.79-.66c-2.22-.85-6.13-2.36-6.13-7.4,0-1.89.66-3.3,1.27-4.15,2.45-3.54,7.08-3.73,9.39-3.73,3.07,0,5,.57,7.22,1.18l.24.28-.47,5.14-.43.14c-1.18-.75-3.02-1.98-5.89-1.98s-3.3,1.56-3.3,2.12c0,1.32,1.27,1.84,2.88,2.41l2.31.85Z"/>
      </g>
      <rect class="cls-1" x="994.19" width="2.95" height="166.04"/>
      <g id="CAS">
        <path class="cls-2" d="m1088.3,71.06l4.57,15.48c5.04,17.06,61.9,17.41,72.81-20.37l-9.16-27.24c-.36,1.34-.82,2.66-1.37,3.97-8.21,24.55-51.05,43.24-66.86,28.15"/>
        <path class="cls-2" d="m1154.16,34.02l-4.98-23.11c1.2-.89-27.6,4.52-51.64,24.68-8.33,13.24-14.39,29.21,7.36,34.28,13.9,3.24,33.49-7.5,43.61-23.39-1.95,1.34-3.82,2.6-4.88,4.03-18.32,24.62-58,17.98-29.82-6.88,9.06-8,28.62-12.63,40.35-9.6"/>
        <path class="cls-2" d="m1152.51,32.49l-5.08-22.66c-27.48,5.27-59.28,26.61-59.56,41.98-.21,11.24,6.02,17.54,15.35,19.64,16.54,3.72,45.96-12.86,51.04-33.59l-4.5-.32c-10.98,39.15-69.55,33.52-37.54,4.86,9-8.07,28.53-12.84,40.28-9.9"/>
        <path class="cls-2" d="m1094.87,115.18h-3.97s-10.75.03-10.75.03c-9.86-.02-14.78,3.9-14.78,11.77s4.92,11.8,14.74,11.8h20.66v5.91l-20.63.03c-13.75.02-20.61-5.87-20.61-17.68s6.82-17.72,20.47-17.75h20.77v5.9h-5.9Zm24.88,14.48h14.44l-5.72-11.47c-.57-1.12-1.06-1.68-1.45-1.68s-.88.56-1.45,1.68l-5.82,11.47h0Zm17.37,5.88h-20.35l-1.64,3.24-2.68,5.91h-6.11l14.74-29.45c1.02-2,1.86-3.37,2.48-4.1.92-1.04,2.07-1.64,3.42-1.8,1.38.16,2.52.75,3.43,1.77.61.69,1.44,2.06,2.48,4.13l14.75,29.45h-5.72l-3.45-6.42-1.36-2.72h0Zm21.9-11.45h29.49s5.9-.01,5.9-.01v8.74l.05,3.01c0,5.9-3.45,8.85-10.32,8.85h-30.98l-.07-5.84h31.51c2.61,0,3.9-1.5,3.9-4.49v-4.43h-35.35v-8.73l-.07-3.01c0-5.9,3.44-8.85,10.32-8.85h30.99l.05,5.84h-31.51c-2.6,0-3.91,1.49-3.92,4.45v4.46h0Z"/>
        <polygon class="cls-1" points="1059.53 151.11 1060.19 151.11 1060.19 156.13 1059.53 156.13 1059.53 151.11 1059.53 151.11"/>
        <polygon class="cls-1" points="1061.37 156.13 1061.37 151.1 1065.01 151.1 1065.01 151.7 1062.04 151.7 1062.04 153.23 1064.81 153.23 1064.81 153.83 1062.04 153.83 1062.04 155.54 1065.12 155.54 1065.12 156.13 1061.37 156.13 1061.37 156.13"/>
        <polygon class="cls-1" points="1066.06 156.13 1066.06 151.1 1069.69 151.1 1069.69 151.7 1066.71 151.7 1066.71 153.23 1069.49 153.23 1069.49 153.83 1066.71 153.83 1066.71 155.54 1069.8 155.54 1069.8 156.13 1066.06 156.13 1066.06 156.13"/>
        <polygon class="cls-1" points="1070.74 156.13 1070.74 151.1 1074.36 151.1 1074.36 151.7 1071.4 151.7 1071.4 153.23 1074.17 153.23 1074.17 153.83 1071.4 153.83 1071.4 155.54 1074.48 155.54 1074.48 156.13 1070.74 156.13 1070.74 156.13"/>
        <path class="cls-1" d="m1080.93,154.37l.66.17c-.13.54-.39.96-.75,1.24-.37.29-.81.43-1.33.43s-.99-.11-1.32-.33c-.34-.22-.6-.54-.78-.95-.17-.42-.26-.87-.26-1.35,0-.52.1-.98.29-1.37.2-.39.49-.69.86-.89.37-.2.77-.3,1.22-.3.5,0,.92.12,1.26.38.34.26.58.62.72,1.08l-.65.15c-.12-.37-.28-.63-.51-.8-.22-.16-.5-.25-.83-.25-.39,0-.71.09-.97.28-.26.18-.44.43-.54.74-.11.31-.16.63-.16.97,0,.42.07.8.19,1.11.12.33.32.56.58.72.26.16.55.23.85.23.37,0,.69-.11.95-.32.25-.21.42-.53.52-.95"/>
        <polygon class="cls-1" points="1082.53 151.11 1083.19 151.11 1083.19 156.13 1082.53 156.13 1082.53 151.11 1082.53 151.11"/>
        <path class="cls-1" d="m1085.04,153.32h1.43c.3,0,.54-.02.71-.08.17-.07.3-.17.39-.31.09-.14.13-.29.13-.45,0-.24-.08-.43-.26-.58-.17-.15-.45-.23-.81-.23h-1.59v1.65h0Zm-.66,2.81v-5.03h2.23c.45,0,.78.06,1.02.14.23.09.41.25.56.48.14.23.21.48.21.76,0,.35-.11.66-.34.89-.23.25-.6.4-1.07.47.17.08.31.17.4.25.19.18.38.4.55.67l.88,1.37h-.84l-.66-1.05c-.19-.3-.36-.53-.48-.69-.13-.16-.23-.27-.33-.34-.11-.07-.21-.11-.3-.13-.09-.01-.21-.03-.38-.03h-.77v2.23h-.66Z"/>
        <path class="cls-1" d="m1093.01,154.37l.66.17c-.14.54-.39.96-.75,1.24-.36.29-.8.43-1.33.43s-.98-.11-1.32-.33c-.34-.22-.59-.54-.77-.95-.18-.42-.27-.87-.27-1.35,0-.52.11-.98.3-1.37.2-.39.49-.69.85-.89.37-.2.77-.3,1.21-.3.51,0,.93.12,1.27.38.34.26.58.62.71,1.08l-.65.15c-.13-.37-.29-.63-.51-.8-.23-.16-.5-.25-.84-.25-.39,0-.71.09-.97.28-.26.18-.44.43-.55.74-.1.31-.15.63-.15.97,0,.42.06.8.19,1.11.13.33.32.56.58.72.26.16.55.23.85.23.37,0,.69-.11.95-.32.26-.21.43-.53.53-.95"/>
        <path class="cls-1" d="m1097.79,151.11h.66v2.9c0,.49-.06.9-.17,1.2-.11.3-.32.54-.62.73-.3.18-.69.28-1.18.28s-.85-.08-1.15-.25c-.3-.16-.52-.39-.64-.7-.12-.3-.19-.72-.19-1.25v-2.9h.66v2.89c0,.44.04.76.12.97.08.2.22.36.42.47.19.11.44.16.72.16.49,0,.83-.11,1.05-.33.2-.22.31-.64.31-1.28v-2.89h0Z"/>
        <polygon class="cls-1" points="1099.67 151.11 1100.33 151.11 1100.33 156.13 1099.67 156.13 1099.67 151.11 1099.67 151.11"/>
        <polygon class="cls-1" points="1102.79 156.13 1102.79 151.7 1101.13 151.7 1101.13 151.1 1105.11 151.1 1105.11 151.7 1103.44 151.7 1103.44 156.13 1102.79 156.13 1102.79 156.13"/>
        <path class="cls-1" d="m1105.57,154.51l.63-.05c.03.25.1.45.2.61.11.16.28.3.51.39.23.1.49.14.77.14.26,0,.48-.03.68-.11.19-.08.34-.17.43-.31.09-.14.14-.28.14-.43,0-.16-.05-.3-.14-.42-.09-.11-.24-.22-.45-.3-.13-.05-.43-.13-.9-.24-.45-.11-.78-.22-.96-.31-.24-.12-.42-.28-.54-.47-.12-.18-.17-.39-.17-.63s.07-.48.22-.7c.14-.23.35-.39.63-.51.28-.11.58-.17.93-.17.37,0,.7.07.99.18.28.12.5.29.65.53.15.23.24.5.25.79l-.64.05c-.03-.32-.15-.56-.35-.72-.2-.16-.49-.24-.87-.24s-.69.07-.88.22c-.18.15-.28.32-.28.53,0,.18.07.34.19.45.13.11.46.23,1.01.36.54.12.91.23,1.11.32.29.14.5.31.64.52.14.21.21.44.21.71s-.08.52-.23.75c-.16.23-.38.41-.67.55-.29.13-.61.2-.96.2-.46,0-.84-.06-1.14-.2-.31-.14-.55-.33-.72-.6-.17-.26-.27-.56-.28-.9"/>
        <path class="cls-1" d="m1112.93,154.07h1.71l-.52-1.38c-.16-.43-.27-.77-.36-1.05-.07.33-.16.64-.27.96l-.56,1.47h0Zm-1.44,2.07l1.93-5.02h.71l2.05,5.02h-.76l-.58-1.52h-2.1l-.56,1.52h-.7Z"/>
        <polygon class="cls-1" points="1116.71 156.13 1116.71 151.1 1117.38 151.1 1120.03 155.05 1120.03 151.1 1120.67 151.1 1120.67 156.13 1119.98 156.13 1117.34 152.18 1117.34 156.13 1116.71 156.13 1116.71 156.13"/>
        <path class="cls-1" d="m1122.44,155.54h1.07c.33,0,.59-.03.78-.09.19-.06.34-.15.45-.26.16-.16.27-.37.37-.64.09-.26.13-.59.13-.97,0-.53-.09-.93-.26-1.21-.18-.28-.39-.47-.63-.56-.18-.07-.46-.11-.86-.11h-1.05v3.84h0Zm-.67.59v-5.03h1.73c.39,0,.69.03.89.08.29.06.54.18.74.36.26.23.47.51.59.86.13.35.2.75.2,1.19,0,.38-.04.72-.13,1.02-.09.29-.2.54-.34.73-.14.19-.29.35-.46.45-.17.11-.36.2-.6.25-.23.05-.5.09-.81.09h-1.81Z"/>
        <path class="cls-1" d="m1128.57,154.51l.62-.05c.04.25.1.45.21.61.11.16.28.3.51.39.23.1.49.14.77.14.25,0,.47-.03.67-.11.2-.08.34-.17.43-.31.1-.14.14-.28.14-.43,0-.16-.04-.3-.13-.42-.1-.11-.25-.22-.45-.3-.14-.05-.43-.13-.9-.24-.46-.11-.78-.22-.96-.31-.25-.12-.42-.28-.54-.47-.12-.18-.18-.39-.18-.63s.07-.48.22-.7c.15-.23.35-.39.63-.51.27-.11.58-.17.92-.17.37,0,.7.07.99.18.28.12.5.29.65.53.15.23.24.5.25.79l-.64.05c-.05-.32-.15-.56-.35-.72-.2-.16-.49-.24-.87-.24s-.69.07-.88.22c-.18.15-.27.32-.27.53,0,.18.06.34.19.45.12.11.47.23,1,.36.54.12.91.23,1.11.32.3.14.51.31.65.52.14.21.22.44.22.71s-.08.52-.24.75c-.15.23-.37.41-.66.55-.28.13-.61.2-.96.2-.46,0-.84-.06-1.15-.2-.3-.14-.55-.33-.72-.6-.17-.26-.26-.56-.27-.9"/>
        <path class="cls-1" d="m1134.89,156.13v-2.13l-1.94-2.9h.81l.99,1.51c.18.29.35.57.51.85.15-.26.34-.56.55-.89l.97-1.48h.77l-2,2.9v2.13h-.66Z"/>
        <path class="cls-1" d="m1137.93,154.51l.63-.05c.02.25.09.45.21.61.11.16.27.3.51.39.23.1.48.14.77.14.25,0,.48-.03.66-.11.2-.08.34-.17.44-.31.1-.14.14-.28.14-.43,0-.16-.04-.3-.14-.42-.09-.11-.24-.22-.44-.3-.14-.05-.44-.13-.9-.24-.46-.11-.78-.22-.98-.31-.24-.12-.41-.28-.53-.47-.11-.18-.17-.39-.17-.63s.06-.48.21-.7c.15-.23.36-.39.64-.51.27-.11.58-.17.92-.17.37,0,.7.07.98.18.28.12.51.29.66.53.15.23.23.5.25.79l-.64.05c-.04-.32-.16-.56-.35-.72-.2-.16-.49-.24-.87-.24-.41,0-.7.07-.89.22-.18.15-.27.32-.27.53,0,.18.06.34.2.45.13.11.45.23.99.36.54.12.91.23,1.12.32.3.14.51.31.65.52.14.21.21.44.21.71s-.07.52-.23.75c-.15.23-.37.41-.66.55-.28.13-.61.2-.96.2-.45,0-.84-.06-1.15-.2-.31-.14-.55-.33-.72-.6-.17-.26-.26-.56-.27-.9"/>
        <polygon class="cls-1" points="1144.11 156.13 1144.11 151.7 1142.46 151.7 1142.46 151.1 1146.43 151.1 1146.43 151.7 1144.77 151.7 1144.77 156.13 1144.11 156.13 1144.11 156.13"/>
        <polygon class="cls-1" points="1147.13 156.13 1147.13 151.1 1150.76 151.1 1150.76 151.7 1147.79 151.7 1147.79 153.23 1150.56 153.23 1150.56 153.83 1147.79 153.83 1147.79 155.54 1150.88 155.54 1150.88 156.13 1147.13 156.13 1147.13 156.13"/>
        <path class="cls-1" d="m1151.77,156.13v-5.03h1l1.19,3.56c.11.33.2.58.24.75.06-.18.15-.46.27-.81l1.2-3.49h.9v5.03h-.64v-4.21l-1.45,4.21h-.61l-1.45-4.28v4.28h-.64Z"/>
        <path class="cls-1" d="m1157.41,154.51l.63-.05c.03.25.1.45.21.61.11.16.28.3.5.39.23.1.49.14.77.14.26,0,.48-.03.67-.11.2-.08.34-.17.44-.31.09-.14.15-.28.15-.43,0-.16-.05-.3-.14-.42-.09-.11-.24-.22-.45-.3-.13-.05-.43-.13-.89-.24-.46-.11-.78-.22-.97-.31-.24-.12-.42-.28-.54-.47-.12-.18-.17-.39-.17-.63s.07-.48.22-.7c.14-.23.36-.39.63-.51.28-.11.58-.17.92-.17.38,0,.7.07.99.18.28.12.5.29.65.53.16.23.24.5.25.79l-.64.05c-.03-.32-.15-.56-.35-.72-.2-.16-.49-.24-.88-.24s-.69.07-.88.22c-.18.15-.28.32-.28.53,0,.18.06.34.19.45.13.11.47.23,1.01.36.53.12.91.23,1.11.32.29.14.51.31.65.52.13.21.21.44.21.71s-.08.52-.23.75c-.16.23-.38.41-.66.55-.28.13-.61.2-.97.2-.46,0-.84-.06-1.14-.2-.31-.14-.55-.33-.72-.6-.17-.26-.26-.56-.28-.9"/>
        <path class="cls-1" d="m1164.03,154.51l.63-.05c.03.25.1.45.21.61.1.16.28.3.5.39.23.1.49.14.77.14.25,0,.48-.03.66-.11.2-.08.35-.17.44-.31.09-.14.14-.28.14-.43,0-.16-.04-.3-.14-.42-.09-.11-.24-.22-.45-.3-.14-.05-.44-.13-.9-.24-.46-.11-.78-.22-.97-.31-.24-.12-.42-.28-.54-.47-.11-.18-.17-.39-.17-.63s.07-.48.21-.7c.14-.23.36-.39.63-.51.28-.11.59-.17.92-.17.38,0,.71.07.99.18.28.12.5.29.65.53.15.23.23.5.24.79l-.64.05c-.03-.32-.15-.56-.34-.72-.2-.16-.49-.24-.88-.24s-.69.07-.88.22c-.19.15-.28.32-.28.53,0,.18.07.34.2.45.14.11.46.23,1,.36.54.12.91.23,1.11.32.3.14.51.31.65.52.15.21.21.44.21.71s-.07.52-.23.75c-.15.23-.38.41-.66.55-.29.13-.61.2-.97.2-.46,0-.84-.06-1.14-.2-.31-.14-.55-.33-.72-.6-.18-.26-.27-.56-.28-.9"/>
        <path class="cls-1" d="m1169.43,153.7c0,.6.16,1.08.49,1.43.32.34.74.52,1.22.52s.91-.17,1.23-.52c.33-.35.49-.86.49-1.5,0-.41-.07-.77-.21-1.07-.14-.3-.34-.54-.61-.71-.27-.16-.57-.25-.9-.25-.46,0-.87.16-1.21.49-.34.32-.51.87-.51,1.62m-.69-.01c0-.84.23-1.49.68-1.96.45-.48,1.02-.71,1.73-.71.46,0,.88.11,1.25.34.37.22.65.53.85.92.19.4.29.85.29,1.35s-.1.97-.31,1.37c-.21.4-.5.7-.88.91-.37.21-.78.31-1.21.31-.47,0-.89-.12-1.27-.35-.37-.23-.65-.54-.84-.93-.19-.39-.29-.82-.29-1.25"/>
        <path class="cls-1" d="m1177.98,154.37l.67.17c-.14.54-.39.96-.76,1.24-.36.29-.8.43-1.32.43s-.99-.11-1.33-.33c-.33-.22-.59-.54-.77-.95-.17-.42-.27-.87-.27-1.35,0-.52.1-.98.3-1.37.19-.39.48-.69.85-.89.37-.2.77-.3,1.21-.3.51,0,.93.12,1.28.38.34.26.57.62.71,1.08l-.66.15c-.11-.37-.28-.63-.5-.8-.22-.16-.5-.25-.84-.25-.38,0-.71.09-.96.28-.27.18-.44.43-.55.74-.1.31-.16.63-.16.97,0,.42.07.8.19,1.11.12.33.31.56.57.72.27.16.55.23.86.23.37,0,.68-.11.94-.32.26-.21.43-.53.52-.95"/>
        <polygon class="cls-1" points="1179.58 151.11 1180.24 151.11 1180.24 156.13 1179.58 156.13 1179.58 151.11 1179.58 151.11"/>
        <polygon class="cls-1" points="1181.43 156.13 1181.43 151.1 1185.06 151.1 1185.06 151.7 1182.09 151.7 1182.09 153.23 1184.86 153.23 1184.86 153.83 1182.09 153.83 1182.09 155.54 1185.18 155.54 1185.18 156.13 1181.43 156.13 1181.43 156.13"/>
        <polygon class="cls-1" points="1187.37 156.13 1187.37 151.7 1185.72 151.7 1185.72 151.1 1189.69 151.1 1189.69 151.7 1188.03 151.7 1188.03 156.13 1187.37 156.13 1187.37 156.13"/>
        <path class="cls-1" d="m1191.79,156.13v-2.13l-1.93-2.9h.8l.99,1.51c.18.29.36.57.51.85.15-.26.34-.56.55-.89l.97-1.48h.78l-2.01,2.9v2.13h-.66Z"/>
      </g>
    </g>
  </g>
</svg>