<svg width="147" height="42" viewBox="0 0 147 42" fill="none" xmlns="http://www.w3.org/2000/svg">
<path fill-rule="evenodd" clip-rule="evenodd" d="M0.203583 29.2925L2.40326 36.6978C4.82715 44.8605 32.1723 45.0258 37.424 26.9548L33.0208 13.9263C32.8488 14.5645 32.6265 15.2009 32.3617 15.8257C28.4147 27.568 7.80579 36.5074 0.203583 29.2925Z" fill="url(#paint0_linear_152_74)"/>
<path fill-rule="evenodd" clip-rule="evenodd" d="M31.8823 11.5751L29.4855 0.520994C30.0615 0.0961314 16.2121 2.68184 4.64929 12.3287C0.640396 18.6594 -2.27059 26.3031 8.19041 28.7253C14.8745 30.2729 24.2956 25.14 29.1627 17.5347C28.2271 18.173 27.3283 18.7786 26.818 19.461C18.0078 31.2399 -1.07991 28.0602 12.4738 16.1679C16.8325 12.3403 26.242 10.1275 31.8823 11.5751Z" fill="#5F6062"/>
<path fill-rule="evenodd" clip-rule="evenodd" d="M31.0879 10.8407L28.6466 0C15.4312 2.51842 0.135918 12.7286 0.00254609 20.0801C-0.0998991 25.4591 2.89807 28.4716 7.38633 29.4732C15.3442 31.2514 29.4932 23.3194 31.9345 13.4034L29.7696 13.2515C24.4889 31.9762 -3.67968 29.2867 11.7122 15.5757C16.0439 11.7193 25.436 9.43542 31.0879 10.8407Z" fill="black"/>
<path fill-rule="evenodd" clip-rule="evenodd" d="M119.991 14.5684H142.005V14.5607H146.41V21.0509L146.451 23.2848C146.451 27.6641 143.876 29.8576 138.742 29.8576H131.028H115.613L115.565 25.5225H136.094H139.088C141.033 25.5225 142.001 24.4056 142.001 22.189V18.9016H119.97H115.611V12.4171L115.563 10.1832C115.563 5.80387 118.13 3.60843 123.271 3.60843H130.978H146.406L146.447 7.94741H125.917H122.923C120.981 7.94741 120.003 9.05283 119.995 11.254L119.991 14.5684Z" fill="black"/>
<path fill-rule="evenodd" clip-rule="evenodd" d="M100.486 7.99163C99.7107 6.45366 99.0902 5.43668 98.6379 4.92531C97.9633 4.16594 97.109 3.72762 96.0787 3.60843C95.0697 3.72762 94.2115 4.17363 93.5253 4.94646C93.0576 5.48667 92.4371 6.50365 91.6736 7.99163L80.6656 29.8596H85.0224H85.2234L87.2221 25.4725L88.4475 23.0695H103.64L104.657 25.0919L107.232 29.8596H111.502L100.486 7.99163ZM90.6762 18.7016L95.0234 10.1832C95.4467 9.35273 95.8062 8.93556 96.1039 8.93556C96.3977 8.93556 96.7572 9.35273 97.1863 10.1832L101.456 18.7016H90.6762Z" fill="black"/>
<path fill-rule="evenodd" clip-rule="evenodd" d="M72.0988 7.94744H70.7148H69.1337V7.95705L61.1043 7.97243C53.7437 7.95705 50.0712 10.8677 50.0712 16.7119C50.0712 22.5543 53.7437 25.4726 61.0792 25.4726H76.504V29.8596L61.1024 29.8788C50.8385 29.8904 45.7124 25.5245 45.7124 16.7523C45.7124 7.99166 50.8037 3.59692 60.998 3.57001H76.504V6.8478V7.94744H72.0988Z" fill="black"/>
<path d="M46.2073 34.6273H45.7144V38.3549H46.2073V34.6273Z" fill="black"/>
<path d="M47.0925 38.3569V34.6234H49.8044V35.0656H47.5893V36.2056H49.6595V36.6459H47.5893V37.9147H49.8895V38.3569H47.0925Z" fill="black"/>
<path d="M50.5873 38.3569V34.6234H53.2992V35.0656H51.0802V36.2056H53.1542V36.6459H51.0802V37.9147H53.3803V38.3569H50.5873Z" fill="black"/>
<path d="M54.082 38.3569V34.6234H56.7862V35.0656H54.5749V36.2056H56.6489V36.6459H54.5749V37.9147H56.8751V38.3569H54.082Z" fill="black"/>
<path d="M61.6919 37.0457L62.1887 37.1745C62.0882 37.5744 61.8987 37.8839 61.6301 38.0973C61.3556 38.3088 61.0289 38.4184 60.6365 38.4184C60.2326 38.4184 59.902 38.3395 59.6527 38.1704C59.3975 38.0108 59.2004 37.7686 59.0728 37.4648C58.9433 37.1515 58.8795 36.8189 58.8795 36.4613C58.8795 36.0749 58.953 35.7346 59.0979 35.4462C59.2506 35.1579 59.4613 34.9368 59.7397 34.7868C60.0141 34.6407 60.3176 34.5638 60.6481 34.5638C61.0231 34.5638 61.3363 34.6561 61.5914 34.8464C61.8485 35.0387 62.0263 35.304 62.1268 35.65L61.6397 35.7596C61.5489 35.4885 61.429 35.2925 61.259 35.1675C61.0966 35.0464 60.8878 34.981 60.6385 34.981C60.3485 34.981 60.105 35.0502 59.9117 35.1906C59.7184 35.3232 59.5812 35.5135 59.5077 35.7404C59.4265 35.9749 59.3859 36.2114 59.3859 36.4594C59.3859 36.7727 59.4362 37.0534 59.527 37.2841C59.6198 37.5263 59.7648 37.7013 59.9581 37.8186C60.1514 37.9339 60.3698 37.9897 60.596 37.9897C60.8743 37.9897 61.1082 37.9108 61.3053 37.7494C61.4909 37.5975 61.6204 37.361 61.6919 37.0457Z" fill="black"/>
<path d="M63.3794 34.6273H62.8865V38.3549H63.3794V34.6273Z" fill="black"/>
<path d="M64.2627 38.3569V34.6234H65.927C66.2614 34.6234 66.5126 34.6657 66.6885 34.7273C66.8606 34.7926 66.9959 34.9137 67.1041 35.0829C67.2066 35.2502 67.2588 35.4405 67.2588 35.6443C67.2588 35.9076 67.1737 36.1326 67.0055 36.3075C66.8316 36.494 66.561 36.6055 66.2072 36.6574C66.3348 36.717 66.4373 36.7843 66.5049 36.8458C66.6499 36.9765 66.7871 37.1438 66.9166 37.3418L67.57 38.3569H66.9456L66.4489 37.5763C66.3039 37.3553 66.1821 37.1842 66.0893 37.065C65.9966 36.9477 65.9154 36.8631 65.8419 36.815C65.7607 36.767 65.6873 36.7362 65.6158 36.717C65.552 36.7074 65.4631 36.6978 65.3336 36.6978H64.7595V38.3569H64.2627ZM64.7595 36.2671H65.8245C66.0507 36.2671 66.2285 36.2518 66.358 36.2037C66.4856 36.1537 66.5842 36.0749 66.648 35.9769C66.7117 35.875 66.7485 35.7596 66.7485 35.6423C66.7485 35.4655 66.6885 35.3194 66.5552 35.2079C66.4276 35.0944 66.2208 35.0387 65.9463 35.0387H64.7595V36.2671Z" fill="black"/>
<path d="M70.711 37.0457L71.2058 37.1745C71.1014 37.5744 70.9159 37.8839 70.6453 38.0973C70.3766 38.3088 70.0441 38.4184 69.6537 38.4184C69.2497 38.4184 68.9249 38.3395 68.664 38.1704C68.4127 38.0108 68.2214 37.7686 68.0919 37.4648C67.9546 37.1515 67.8908 36.8189 67.8908 36.4613C67.8908 36.0749 67.9701 35.7346 68.117 35.4462C68.2658 35.1579 68.4804 34.9368 68.7548 34.7868C69.0293 34.6407 69.3289 34.5638 69.6595 34.5638C70.0383 34.5638 70.3534 34.6561 70.6105 34.8464C70.8656 35.0387 71.0473 35.304 71.142 35.65L70.6588 35.7596C70.5641 35.4885 70.4404 35.2925 70.278 35.1675C70.1098 35.0464 69.903 34.981 69.6537 34.981C69.3599 34.981 69.124 35.0502 68.9327 35.1906C68.7394 35.3232 68.6002 35.5135 68.521 35.7404C68.4456 35.9749 68.4069 36.2114 68.4069 36.4594C68.4069 36.7727 68.4514 37.0534 68.5461 37.2841C68.6427 37.5263 68.7838 37.7013 68.981 37.8186C69.1743 37.9339 69.3888 37.9897 69.615 37.9897C69.8933 37.9897 70.1272 37.9108 70.3205 37.7494C70.5138 37.5975 70.6433 37.361 70.711 37.0457Z" fill="black"/>
<path d="M74.2772 34.6273H74.774V36.7824C74.774 37.1496 74.7315 37.4475 74.6464 37.6725C74.5633 37.8916 74.4106 38.0743 74.1864 38.2108C73.9602 38.3472 73.6703 38.4184 73.3069 38.4184C72.959 38.4184 72.6729 38.3549 72.4506 38.2338C72.2245 38.1165 72.0621 37.9416 71.9693 37.7109C71.8765 37.4879 71.8282 37.1745 71.8282 36.7824V34.6273H72.3211V36.7747C72.3211 37.1015 72.354 37.3399 72.4139 37.4975C72.4738 37.6494 72.5801 37.7647 72.7251 37.8474C72.8701 37.9281 73.0556 37.9685 73.2644 37.9685C73.6278 37.9685 73.8868 37.8897 74.0472 37.7244C74.1999 37.559 74.2772 37.2457 74.2772 36.7747V34.6273Z" fill="black"/>
<path d="M76.1792 34.6273H75.6825V38.3549H76.1792V34.6273Z" fill="black"/>
<path d="M78.0097 38.3569V35.0656H76.7765V34.6234H79.7455V35.0656H78.5026V38.3569H78.0097Z" fill="black"/>
<path d="M80.0857 37.1553L80.5534 37.1188C80.5766 37.3033 80.625 37.4552 80.7061 37.5725C80.7873 37.6917 80.9168 37.7916 81.0869 37.8628C81.2551 37.9358 81.4484 37.9666 81.661 37.9666C81.8543 37.9666 82.0205 37.9435 82.1655 37.8878C82.3105 37.832 82.4187 37.759 82.4883 37.659C82.5579 37.5571 82.5965 37.4552 82.5965 37.3437C82.5965 37.2226 82.5617 37.1207 82.4922 37.0342C82.4226 36.9496 82.3163 36.8727 82.152 36.8131C82.0553 36.7747 81.833 36.7151 81.4832 36.6324C81.143 36.5497 80.9014 36.4728 80.7641 36.3979C80.5824 36.3056 80.4491 36.1902 80.3601 36.0499C80.2712 35.9134 80.2326 35.7596 80.2326 35.5827C80.2326 35.3982 80.2828 35.2232 80.393 35.0618C80.4974 34.8945 80.6539 34.7715 80.8608 34.685C81.0715 34.6061 81.2976 34.5562 81.5508 34.5562C81.8292 34.5562 82.0708 34.6042 82.2892 34.6907C82.498 34.7811 82.6623 34.908 82.7724 35.0848C82.8865 35.2559 82.9522 35.4539 82.958 35.6712L82.4825 35.7058C82.4574 35.4693 82.3684 35.2925 82.2235 35.1713C82.0746 35.0502 81.8601 34.9926 81.5702 34.9926C81.2706 34.9926 81.0541 35.0483 80.913 35.156C80.7757 35.2636 80.7061 35.3963 80.7061 35.5481C80.7061 35.6846 80.7564 35.7981 80.8511 35.8826C80.9497 35.9672 81.1932 36.0537 81.603 36.1479C82.0051 36.2402 82.2795 36.319 82.4342 36.3844C82.6487 36.4882 82.8092 36.617 82.9135 36.7708C83.0198 36.9227 83.072 37.0976 83.072 37.2995C83.072 37.4956 83.014 37.684 82.9019 37.857C82.784 38.0281 82.6197 38.1646 82.4052 38.2684C82.1926 38.3665 81.9509 38.4145 81.6881 38.4145C81.344 38.4145 81.0618 38.3665 80.8356 38.2665C80.6018 38.1665 80.4239 38.0223 80.2944 37.8205C80.1649 37.634 80.0934 37.4072 80.0857 37.1553Z" fill="black"/>
<path d="M84.5024 38.3569L85.9424 34.6292H86.4759L88.0087 38.3569H87.4443L87.0094 37.2265H85.4437L85.0282 38.3569H84.5024ZM85.581 36.8227H86.8567L86.4663 35.7961C86.3464 35.4732 86.2614 35.2213 86.1995 35.0156C86.1473 35.2579 86.0816 35.4943 85.9966 35.7308L85.581 36.8227Z" fill="black"/>
<path d="M88.405 38.3569V34.6234H88.9095L90.8811 37.5513V34.6234H91.3585V38.3569H90.8463L88.8766 35.4251V38.3569H88.405Z" fill="black"/>
<path d="M92.1897 38.3569V34.6234H93.4809C93.7708 34.6234 93.9931 34.6465 94.1458 34.6792C94.3642 34.7273 94.5459 34.8157 94.6947 34.9445C94.8919 35.1117 95.0465 35.3213 95.1374 35.5847C95.2379 35.8423 95.2862 36.1383 95.2862 36.469C95.2862 36.7497 95.2553 37.0054 95.1857 37.2245C95.118 37.4379 95.0349 37.6244 94.9306 37.7647C94.8262 37.9051 94.7121 38.0223 94.5865 38.1012C94.4609 38.1858 94.3159 38.2511 94.1381 38.2896C93.9641 38.3299 93.7669 38.3569 93.535 38.3569H92.1897ZM92.6864 37.9147H93.4847C93.7302 37.9147 93.9293 37.8897 94.0665 37.8474C94.2076 37.8032 94.3197 37.7378 94.4048 37.6532C94.5208 37.5379 94.6097 37.3764 94.6793 37.1803C94.7469 36.9842 94.7798 36.7439 94.7798 36.4632C94.7798 36.073 94.7121 35.7731 94.5865 35.5635C94.4531 35.3559 94.2966 35.2175 94.1129 35.1464C93.9815 35.0906 93.7669 35.0675 93.4731 35.0675H92.6864V37.9147Z" fill="black"/>
<path d="M97.2578 37.1553L97.7198 37.1188C97.7488 37.3033 97.7971 37.4552 97.8783 37.5725C97.9575 37.6917 98.087 37.7916 98.2571 37.8628C98.4253 37.9358 98.6186 37.9666 98.8312 37.9666C99.0168 37.9666 99.1849 37.9435 99.3299 37.8878C99.4768 37.832 99.5812 37.759 99.6546 37.659C99.7262 37.5571 99.759 37.4552 99.759 37.3437C99.759 37.2226 99.7261 37.1207 99.6624 37.0342C99.5889 36.9496 99.4768 36.8727 99.3241 36.8131C99.2197 36.7747 99.0013 36.7151 98.6553 36.6324C98.3074 36.5497 98.0735 36.4728 97.9363 36.3979C97.7507 36.3056 97.6231 36.1902 97.5323 36.0499C97.4434 35.9134 97.3989 35.7596 97.3989 35.5827C97.3989 35.3982 97.453 35.2232 97.5613 35.0618C97.6695 34.8945 97.8222 34.7715 98.0329 34.685C98.2359 34.6061 98.4697 34.5562 98.721 34.5562C98.9994 34.5562 99.2448 34.6042 99.4594 34.6907C99.6701 34.7811 99.8344 34.908 99.9465 35.0848C100.061 35.2559 100.124 35.4539 100.134 35.6712L99.6566 35.7058C99.6237 35.4693 99.5425 35.2925 99.3937 35.1713C99.2448 35.0502 99.0264 34.9926 98.7403 34.9926C98.4427 34.9926 98.2243 35.0483 98.0812 35.156C97.944 35.2636 97.8802 35.3963 97.8802 35.5481C97.8802 35.6846 97.9285 35.7981 98.0252 35.8826C98.1179 35.9672 98.3731 36.0537 98.7732 36.1479C99.1753 36.2402 99.4536 36.319 99.5986 36.3844C99.8209 36.4882 99.9813 36.617 100.084 36.7708C100.188 36.9227 100.246 37.0976 100.246 37.2995C100.246 37.4956 100.19 37.684 100.068 37.857C99.9562 38.0281 99.7938 38.1646 99.5754 38.2684C99.3647 38.3665 99.1231 38.4145 98.8583 38.4145C98.5181 38.4145 98.232 38.3665 98.002 38.2665C97.7758 38.1665 97.5941 38.0223 97.4608 37.8205C97.3293 37.634 97.2675 37.4072 97.2578 37.1553Z" fill="black"/>
<path d="M101.98 38.3569V36.7766L100.53 34.6234H101.131L101.874 35.7462C102.005 35.9576 102.133 36.1729 102.251 36.3806C102.365 36.1902 102.502 35.9672 102.664 35.7212L103.389 34.6234H103.967L102.471 36.7766V38.3569H101.98Z" fill="black"/>
<path d="M104.245 37.1553L104.713 37.1188C104.729 37.3033 104.777 37.4552 104.866 37.5725C104.945 37.6917 105.069 37.7916 105.245 37.8628C105.415 37.9358 105.604 37.9666 105.817 37.9666C106.006 37.9666 106.172 37.9435 106.314 37.8878C106.462 37.832 106.569 37.759 106.642 37.659C106.714 37.5571 106.747 37.4552 106.747 37.3437C106.747 37.2226 106.714 37.1207 106.642 37.0342C106.576 36.9496 106.464 36.8727 106.312 36.8131C106.207 36.7747 105.983 36.7151 105.643 36.6324C105.299 36.5497 105.057 36.4728 104.914 36.3979C104.736 36.3056 104.605 36.1902 104.516 36.0499C104.433 35.9134 104.392 35.7596 104.392 35.5827C104.392 35.3982 104.441 35.2232 104.545 35.0618C104.653 34.8945 104.81 34.7715 105.02 34.685C105.223 34.6061 105.457 34.5562 105.707 34.5562C105.979 34.5562 106.229 34.6042 106.441 34.6907C106.652 34.7811 106.82 34.908 106.934 35.0848C107.046 35.2559 107.108 35.4539 107.12 35.6712L106.644 35.7058C106.611 35.4693 106.526 35.2925 106.381 35.1713C106.232 35.0502 106.014 34.9926 105.732 34.9926C105.424 34.9926 105.208 35.0483 105.071 35.156C104.933 35.2636 104.868 35.3963 104.868 35.5481C104.868 35.6846 104.916 35.7981 105.015 35.8826C105.111 35.9672 105.353 36.0537 105.755 36.1479C106.159 36.2402 106.437 36.319 106.588 36.3844C106.812 36.4882 106.967 36.617 107.071 36.7708C107.176 36.9227 107.226 37.0976 107.226 37.2995C107.226 37.4956 107.174 37.684 107.056 37.857C106.944 38.0281 106.779 38.1646 106.565 38.2684C106.356 38.3665 106.113 38.4145 105.848 38.4145C105.509 38.4145 105.22 38.3665 104.993 38.2665C104.763 38.1665 104.586 38.0223 104.452 37.8205C104.319 37.634 104.255 37.4072 104.245 37.1553Z" fill="black"/>
<path d="M108.863 38.3569V35.0656H107.628V34.6234H110.597V35.0656H109.356V38.3569H108.863Z" fill="black"/>
<path d="M111.113 38.3569V34.6234H113.825V35.0656H111.61V36.2056H113.68V36.6459H111.61V37.9147H113.914V38.3569H111.113Z" fill="black"/>
<path d="M114.581 38.3569V34.6234H115.327L116.214 37.2649C116.295 37.5129 116.359 37.6975 116.392 37.8186C116.436 37.6821 116.502 37.4802 116.593 37.2149L117.488 34.6234H118.159V38.3569H117.679V35.2348L116.593 38.3569H116.141L115.058 35.181V38.3569H114.581Z" fill="black"/>
<path d="M118.789 37.1553L119.258 37.1188C119.282 37.3033 119.33 37.4552 119.415 37.5725C119.496 37.6917 119.622 37.7916 119.79 37.8628C119.96 37.9358 120.155 37.9666 120.364 37.9666C120.557 37.9666 120.722 37.9435 120.863 37.8878C121.012 37.832 121.118 37.759 121.189 37.659C121.259 37.5571 121.3 37.4552 121.3 37.3437C121.3 37.2226 121.263 37.1207 121.195 37.0342C121.131 36.9496 121.013 36.8727 120.857 36.8131C120.76 36.7747 120.534 36.7151 120.192 36.6324C119.848 36.5497 119.606 36.4728 119.469 36.3979C119.291 36.3056 119.154 36.1902 119.065 36.0499C118.976 35.9134 118.936 35.7596 118.936 35.5827C118.936 35.3982 118.988 35.2232 119.098 35.0618C119.202 34.8945 119.365 34.7715 119.566 34.685C119.773 34.6061 120.001 34.5562 120.252 34.5562C120.534 34.5562 120.776 34.6042 120.994 34.6907C121.205 34.7811 121.365 34.908 121.477 35.0848C121.595 35.2559 121.655 35.4539 121.663 35.6712L121.187 35.7058C121.162 35.4693 121.073 35.2925 120.928 35.1713C120.78 35.0502 120.565 34.9926 120.275 34.9926C119.975 34.9926 119.759 35.0483 119.618 35.156C119.481 35.2636 119.413 35.3963 119.413 35.5481C119.413 35.6846 119.461 35.7981 119.558 35.8826C119.657 35.9672 119.906 36.0537 120.31 36.1479C120.708 36.2402 120.988 36.319 121.139 36.3844C121.358 36.4882 121.518 36.617 121.624 36.7708C121.725 36.9227 121.777 37.0976 121.777 37.2995C121.777 37.4956 121.721 37.684 121.607 37.857C121.485 38.0281 121.325 38.1646 121.112 38.2684C120.901 38.3665 120.66 38.4145 120.391 38.4145C120.049 38.4145 119.765 38.3665 119.539 38.2665C119.309 38.1665 119.131 38.0223 118.999 37.8205C118.87 37.634 118.796 37.4072 118.789 37.1553Z" fill="black"/>
<path d="M123.737 37.1553L124.205 37.1188C124.228 37.3033 124.278 37.4552 124.361 37.5725C124.439 37.6917 124.568 37.7916 124.738 37.8628C124.906 37.9358 125.102 37.9666 125.314 37.9666C125.504 37.9666 125.674 37.9435 125.809 37.8878C125.96 37.832 126.068 37.759 126.14 37.659C126.205 37.5571 126.246 37.4552 126.246 37.3437C126.246 37.2226 126.213 37.1207 126.14 37.0342C126.076 36.9496 125.964 36.8727 125.807 36.8131C125.705 36.7747 125.48 36.7151 125.136 36.6324C124.794 36.5497 124.553 36.4728 124.413 36.3979C124.236 36.3056 124.1 36.1902 124.009 36.0499C123.926 35.9134 123.882 35.7596 123.882 35.5827C123.882 35.3982 123.938 35.2232 124.042 35.0618C124.147 34.8945 124.309 34.7715 124.51 34.685C124.719 34.6061 124.949 34.5562 125.196 34.5562C125.479 34.5562 125.724 34.6042 125.939 34.6907C126.149 34.7811 126.31 34.908 126.428 35.0848C126.536 35.2559 126.602 35.4539 126.609 35.6712L126.132 35.7058C126.109 35.4693 126.022 35.2925 125.875 35.1713C125.728 35.0502 125.511 34.9926 125.22 34.9926C124.92 34.9926 124.703 35.0483 124.566 35.156C124.427 35.2636 124.356 35.3963 124.356 35.5481C124.356 35.6846 124.406 35.7981 124.502 35.8826C124.603 35.9672 124.848 36.0537 125.252 36.1479C125.654 36.2402 125.933 36.319 126.08 36.3844C126.302 36.4882 126.464 36.617 126.565 36.7708C126.675 36.9227 126.721 37.0976 126.721 37.2995C126.721 37.4956 126.665 37.684 126.553 37.857C126.439 38.0281 126.273 38.1646 126.06 38.2684C125.842 38.3665 125.604 38.4145 125.337 38.4145C124.993 38.4145 124.711 38.3665 124.485 38.2665C124.251 38.1665 124.073 38.0223 123.944 37.8205C123.812 37.634 123.745 37.4072 123.737 37.1553Z" fill="black"/>
<path d="M127.247 36.5421C127.247 35.9192 127.415 35.4328 127.752 35.0906C128.086 34.7369 128.513 34.56 129.047 34.56C129.391 34.56 129.704 34.6407 129.982 34.808C130.257 34.9676 130.471 35.1983 130.616 35.4924C130.761 35.7865 130.833 36.121 130.833 36.4921C130.833 36.8689 130.755 37.2091 130.603 37.511C130.448 37.8089 130.23 38.0339 129.947 38.1858C129.671 38.3395 129.364 38.4184 129.041 38.4184C128.689 38.4184 128.374 38.328 128.092 38.1608C127.819 37.9916 127.609 37.759 127.464 37.4668C127.319 37.1765 127.247 36.8612 127.247 36.5421ZM127.763 36.5497C127.763 36.9957 127.885 37.3533 128.127 37.609C128.368 37.8647 128.676 37.9935 129.039 37.9935C129.418 37.9935 129.717 37.8647 129.957 37.6052C130.201 37.3456 130.324 36.9688 130.324 36.4921C130.324 36.1883 130.272 35.923 130.168 35.6962C130.062 35.4732 129.915 35.2944 129.716 35.1675C129.513 35.0464 129.292 34.981 129.047 34.981C128.699 34.981 128.393 35.1041 128.142 35.3424C127.889 35.5847 127.763 35.9865 127.763 36.5497Z" fill="black"/>
<path d="M134.146 37.0457L134.646 37.1745C134.542 37.5744 134.356 37.8839 134.082 38.0973C133.815 38.3088 133.485 38.4184 133.092 38.4184C132.686 38.4184 132.354 38.3395 132.103 38.1704C131.855 38.0108 131.66 37.7686 131.529 37.4648C131.399 37.1515 131.33 36.8189 131.33 36.4613C131.33 36.0749 131.407 35.7346 131.556 35.4462C131.701 35.1579 131.915 34.9368 132.194 34.7868C132.468 34.6407 132.768 34.5638 133.096 34.5638C133.477 34.5638 133.792 34.6561 134.051 34.8464C134.302 35.0387 134.478 35.304 134.585 35.65L134.092 35.7596C134.01 35.4885 133.881 35.2925 133.717 35.1675C133.55 35.0464 133.342 34.981 133.09 34.981C132.804 34.981 132.563 35.0502 132.373 35.1906C132.174 35.3232 132.043 35.5135 131.96 35.7404C131.882 35.9749 131.84 36.2114 131.84 36.4594C131.84 36.7727 131.888 37.0534 131.985 37.2841C132.074 37.5263 132.221 37.7013 132.414 37.8186C132.615 37.9339 132.826 37.9897 133.056 37.9897C133.334 37.9897 133.566 37.9108 133.761 37.7494C133.951 37.5975 134.082 37.361 134.146 37.0457Z" fill="black"/>
<path d="M135.833 34.6273H135.34V38.3549H135.833V34.6273Z" fill="black"/>
<path d="M136.72 38.3569V34.6234H139.432V35.0656H137.217V36.2056H139.287V36.6459H137.217V37.9147H139.521V38.3569H136.72Z" fill="black"/>
<path d="M141.16 38.3569V35.0656H139.925V34.6234H142.894V35.0656H141.651V38.3569H141.16Z" fill="black"/>
<path d="M144.456 38.3569V36.7766L143.016 34.6234H143.615L144.356 35.7462C144.491 35.9576 144.622 36.1729 144.734 36.3806C144.848 36.1902 144.986 35.9672 145.148 35.7212L145.873 34.6234H146.455L144.953 36.7766V38.3569H144.456Z" fill="black"/>
<defs>
<linearGradient id="paint0_linear_152_74" x1="0.204124" y1="27.9618" x2="37.4239" y2="27.9618" gradientUnits="userSpaceOnUse">
<stop stop-color="#7AC143"/>
<stop offset="1" stop-color="#008752"/>
</linearGradient>
</defs>
</svg>
